<mxfile host="65bd71144e">
    <diagram name="Page-1" id="wlyf-28CiW5awipyigA7">
        <mxGraphModel dx="1561" dy="1570" grid="1" gridSize="20" guides="1" tooltips="1" connect="1" arrows="1" fold="1" page="1" pageScale="1" pageWidth="850" pageHeight="1100" math="0" shadow="0">
            <root>
                <mxCell id="0"/>
                <mxCell id="1" parent="0"/>
                <mxCell id="e03oDloT3PY8fntRWRLx-6" value="Users" style="swimlane;childLayout=stackLayout;horizontal=1;startSize=50;horizontalStack=0;rounded=1;fontSize=14;fontStyle=0;strokeWidth=2;resizeParent=0;resizeLast=1;shadow=0;dashed=0;align=center;arcSize=4;whiteSpace=wrap;html=1;" parent="1" vertex="1">
                    <mxGeometry x="-80" y="240" width="160" height="320" as="geometry"/>
                </mxCell>
                <mxCell id="e03oDloT3PY8fntRWRLx-7" value="&lt;font style=&quot;font-size: 16px;&quot;&gt;+ user_id&lt;br&gt;+ user_name&lt;br&gt;+ first_name&lt;br&gt;+ last_name&lt;br&gt;+ born_at&lt;br&gt;+ pic&lt;br&gt;+ password&lt;br&gt;+ is_admin&lt;br&gt;+ deleted_at&lt;br&gt;+ coins&lt;br&gt;&lt;/font&gt;" style="align=left;strokeColor=none;fillColor=none;spacingLeft=4;fontSize=12;verticalAlign=top;resizable=0;rotatable=0;part=1;html=1;" parent="e03oDloT3PY8fntRWRLx-6" vertex="1">
                    <mxGeometry y="50" width="160" height="270" as="geometry"/>
                </mxCell>
                <mxCell id="e03oDloT3PY8fntRWRLx-8" value="Movies" style="swimlane;childLayout=stackLayout;horizontal=1;startSize=50;horizontalStack=0;rounded=1;fontSize=14;fontStyle=0;strokeWidth=2;resizeParent=0;resizeLast=1;shadow=0;dashed=0;align=center;arcSize=4;whiteSpace=wrap;html=1;" parent="1" vertex="1">
                    <mxGeometry x="400" y="240" width="160" height="240" as="geometry"/>
                </mxCell>
                <mxCell id="e03oDloT3PY8fntRWRLx-9" value="&lt;font style=&quot;font-size: 16px;&quot;&gt;+ movie_id&lt;br&gt;+ title&lt;br&gt;+ duration&lt;br&gt;+ story_line&lt;br&gt;+ published_at&lt;br&gt;+ cover_pic&lt;br&gt;+ deleted_at&lt;br&gt;&lt;/font&gt;" style="align=left;strokeColor=none;fillColor=none;spacingLeft=4;fontSize=12;verticalAlign=top;resizable=0;rotatable=0;part=1;html=1;" parent="e03oDloT3PY8fntRWRLx-8" vertex="1">
                    <mxGeometry y="50" width="160" height="190" as="geometry"/>
                </mxCell>
                <mxCell id="e03oDloT3PY8fntRWRLx-10" value="Genres" style="swimlane;childLayout=stackLayout;horizontal=1;startSize=50;horizontalStack=0;rounded=1;fontSize=14;fontStyle=0;strokeWidth=2;resizeParent=0;resizeLast=1;shadow=0;dashed=0;align=center;arcSize=4;whiteSpace=wrap;html=1;" parent="1" vertex="1">
                    <mxGeometry x="880" y="240" width="160" height="240" as="geometry"/>
                </mxCell>
                <mxCell id="e03oDloT3PY8fntRWRLx-11" value="&lt;font style=&quot;font-size: 16px;&quot;&gt;+ genre_id&lt;br&gt;+ title&lt;br&gt;+ description&lt;br&gt;&lt;/font&gt;" style="align=left;strokeColor=none;fillColor=none;spacingLeft=4;fontSize=12;verticalAlign=top;resizable=0;rotatable=0;part=1;html=1;" parent="e03oDloT3PY8fntRWRLx-10" vertex="1">
                    <mxGeometry y="50" width="160" height="190" as="geometry"/>
                </mxCell>
                <mxCell id="e03oDloT3PY8fntRWRLx-12" value="Movies-Genres" style="swimlane;childLayout=stackLayout;horizontal=1;startSize=50;horizontalStack=0;rounded=1;fontSize=14;fontStyle=0;strokeWidth=2;resizeParent=0;resizeLast=1;shadow=0;dashed=0;align=center;arcSize=4;whiteSpace=wrap;html=1;" parent="1" vertex="1">
                    <mxGeometry x="640" y="560" width="160" height="240" as="geometry"/>
                </mxCell>
                <mxCell id="e03oDloT3PY8fntRWRLx-13" value="&lt;font style=&quot;font-size: 16px;&quot;&gt;+ movie_genre_id&lt;br&gt;+ movie_id&lt;br&gt;+ genre_id&lt;br&gt;&lt;/font&gt;" style="align=left;strokeColor=none;fillColor=none;spacingLeft=4;fontSize=12;verticalAlign=top;resizable=0;rotatable=0;part=1;html=1;" parent="e03oDloT3PY8fntRWRLx-12" vertex="1">
                    <mxGeometry y="50" width="160" height="190" as="geometry"/>
                </mxCell>
                <mxCell id="e03oDloT3PY8fntRWRLx-14" value="" style="edgeStyle=entityRelationEdgeStyle;fontSize=12;html=1;endArrow=ERmany;rounded=0;exitX=0;exitY=0.75;exitDx=0;exitDy=0;entryX=1;entryY=0;entryDx=0;entryDy=0;" parent="1" source="e03oDloT3PY8fntRWRLx-11" target="e03oDloT3PY8fntRWRLx-13" edge="1">
                    <mxGeometry width="100" height="100" relative="1" as="geometry">
                        <mxPoint x="580" y="820" as="sourcePoint"/>
                        <mxPoint x="680" y="720" as="targetPoint"/>
                    </mxGeometry>
                </mxCell>
                <mxCell id="e03oDloT3PY8fntRWRLx-15" value="" style="edgeStyle=entityRelationEdgeStyle;fontSize=12;html=1;endArrow=ERmany;rounded=0;exitX=1;exitY=0.75;exitDx=0;exitDy=0;entryX=0;entryY=0;entryDx=0;entryDy=0;" parent="1" source="e03oDloT3PY8fntRWRLx-9" target="e03oDloT3PY8fntRWRLx-13" edge="1">
                    <mxGeometry width="100" height="100" relative="1" as="geometry">
                        <mxPoint x="520" y="620" as="sourcePoint"/>
                        <mxPoint x="680" y="460" as="targetPoint"/>
                    </mxGeometry>
                </mxCell>
                <mxCell id="e03oDloT3PY8fntRWRLx-16" value="Crew" style="swimlane;childLayout=stackLayout;horizontal=1;startSize=50;horizontalStack=0;rounded=1;fontSize=14;fontStyle=0;strokeWidth=2;resizeParent=0;resizeLast=1;shadow=0;dashed=0;align=center;arcSize=4;whiteSpace=wrap;html=1;" parent="1" vertex="1">
                    <mxGeometry x="320" y="-320" width="160" height="240" as="geometry"/>
                </mxCell>
                <mxCell id="e03oDloT3PY8fntRWRLx-17" value="&lt;font style=&quot;font-size: 16px;&quot;&gt;+ actor_id&lt;br&gt;+ first_name&lt;br&gt;+ last_name&lt;br&gt;+ born_at&lt;br&gt;+ description&lt;br&gt;+ pic&lt;br&gt;&lt;/font&gt;" style="align=left;strokeColor=none;fillColor=none;spacingLeft=4;fontSize=12;verticalAlign=top;resizable=0;rotatable=0;part=1;html=1;" parent="e03oDloT3PY8fntRWRLx-16" vertex="1">
                    <mxGeometry y="50" width="160" height="190" as="geometry"/>
                </mxCell>
                <mxCell id="e03oDloT3PY8fntRWRLx-18" value="Positions" style="swimlane;childLayout=stackLayout;horizontal=1;startSize=50;horizontalStack=0;rounded=1;fontSize=14;fontStyle=0;strokeWidth=2;resizeParent=0;resizeLast=1;shadow=0;dashed=0;align=center;arcSize=4;whiteSpace=wrap;html=1;" parent="1" vertex="1">
                    <mxGeometry x="960" y="-320" width="160" height="240" as="geometry"/>
                </mxCell>
                <mxCell id="e03oDloT3PY8fntRWRLx-19" value="&lt;font style=&quot;font-size: 16px;&quot;&gt;+ position_id&lt;br&gt;+ name&lt;br&gt;+ description&lt;br&gt;&lt;/font&gt;" style="align=left;strokeColor=none;fillColor=none;spacingLeft=4;fontSize=12;verticalAlign=top;resizable=0;rotatable=0;part=1;html=1;" parent="e03oDloT3PY8fntRWRLx-18" vertex="1">
                    <mxGeometry y="50" width="160" height="190" as="geometry"/>
                </mxCell>
                <mxCell id="e03oDloT3PY8fntRWRLx-20" value="Crew-positions" style="swimlane;childLayout=stackLayout;horizontal=1;startSize=50;horizontalStack=0;rounded=1;fontSize=14;fontStyle=0;strokeWidth=2;resizeParent=0;resizeLast=1;shadow=0;dashed=0;align=center;arcSize=4;whiteSpace=wrap;html=1;" parent="1" vertex="1">
                    <mxGeometry x="640" y="-560" width="160" height="240" as="geometry"/>
                </mxCell>
                <mxCell id="e03oDloT3PY8fntRWRLx-21" value="&lt;font style=&quot;font-size: 16px;&quot;&gt;+ crew_position_id&lt;br&gt;+ crew_id&lt;br&gt;+ position_id&lt;br&gt;&lt;br&gt;&lt;/font&gt;" style="align=left;strokeColor=none;fillColor=none;spacingLeft=4;fontSize=12;verticalAlign=top;resizable=0;rotatable=0;part=1;html=1;" parent="e03oDloT3PY8fntRWRLx-20" vertex="1">
                    <mxGeometry y="50" width="160" height="190" as="geometry"/>
                </mxCell>
                <mxCell id="e03oDloT3PY8fntRWRLx-22" value="" style="edgeStyle=entityRelationEdgeStyle;fontSize=12;html=1;endArrow=ERmany;rounded=0;exitX=1;exitY=0;exitDx=0;exitDy=0;entryX=0;entryY=0.75;entryDx=0;entryDy=0;" parent="1" source="e03oDloT3PY8fntRWRLx-17" target="e03oDloT3PY8fntRWRLx-21" edge="1">
                    <mxGeometry width="100" height="100" relative="1" as="geometry">
                        <mxPoint x="460" y="-340" as="sourcePoint"/>
                        <mxPoint x="520" y="-280" as="targetPoint"/>
                    </mxGeometry>
                </mxCell>
                <mxCell id="e03oDloT3PY8fntRWRLx-24" value="" style="edgeStyle=entityRelationEdgeStyle;fontSize=12;html=1;endArrow=ERmany;rounded=0;exitX=0;exitY=0;exitDx=0;exitDy=0;entryX=1;entryY=0.75;entryDx=0;entryDy=0;" parent="1" source="e03oDloT3PY8fntRWRLx-19" target="e03oDloT3PY8fntRWRLx-21" edge="1">
                    <mxGeometry width="100" height="100" relative="1" as="geometry">
                        <mxPoint x="770" y="-90" as="sourcePoint"/>
                        <mxPoint x="850" y="-347" as="targetPoint"/>
                    </mxGeometry>
                </mxCell>
                <mxCell id="e03oDloT3PY8fntRWRLx-25" value="Roles" style="swimlane;childLayout=stackLayout;horizontal=1;startSize=50;horizontalStack=0;rounded=1;fontSize=14;fontStyle=0;strokeWidth=2;resizeParent=0;resizeLast=1;shadow=0;dashed=0;align=center;arcSize=4;whiteSpace=wrap;html=1;" parent="1" vertex="1">
                    <mxGeometry x="720" y="-80" width="160" height="240" as="geometry"/>
                </mxCell>
                <mxCell id="e03oDloT3PY8fntRWRLx-26" value="&lt;font style=&quot;font-size: 16px;&quot;&gt;+ crew_position_id&lt;br&gt;+ movie_id&lt;br&gt;&lt;br&gt;&lt;/font&gt;" style="align=left;strokeColor=none;fillColor=none;spacingLeft=4;fontSize=12;verticalAlign=top;resizable=0;rotatable=0;part=1;html=1;" parent="e03oDloT3PY8fntRWRLx-25" vertex="1">
                    <mxGeometry y="50" width="160" height="190" as="geometry"/>
                </mxCell>
                <mxCell id="e03oDloT3PY8fntRWRLx-27" value="" style="edgeStyle=entityRelationEdgeStyle;fontSize=12;html=1;endArrow=ERmany;rounded=0;exitX=1;exitY=0;exitDx=0;exitDy=0;entryX=0;entryY=0.75;entryDx=0;entryDy=0;" parent="1" source="e03oDloT3PY8fntRWRLx-9" target="e03oDloT3PY8fntRWRLx-26" edge="1">
                    <mxGeometry width="100" height="100" relative="1" as="geometry">
                        <mxPoint x="520" y="737" as="sourcePoint"/>
                        <mxPoint x="620" y="100" as="targetPoint"/>
                        <Array as="points">
                            <mxPoint x="570" y="327"/>
                        </Array>
                    </mxGeometry>
                </mxCell>
                <mxCell id="e03oDloT3PY8fntRWRLx-29" value="" style="edgeStyle=entityRelationEdgeStyle;fontSize=12;html=1;endArrow=ERmany;rounded=0;exitX=0;exitY=1;exitDx=0;exitDy=0;entryX=0;entryY=0;entryDx=0;entryDy=0;" parent="1" source="e03oDloT3PY8fntRWRLx-21" target="e03oDloT3PY8fntRWRLx-26" edge="1">
                    <mxGeometry width="100" height="100" relative="1" as="geometry">
                        <mxPoint x="680" y="-103" as="sourcePoint"/>
                        <mxPoint x="700" y="-40" as="targetPoint"/>
                        <Array as="points">
                            <mxPoint x="690" y="-66"/>
                        </Array>
                    </mxGeometry>
                </mxCell>
                <mxCell id="e03oDloT3PY8fntRWRLx-30" value="Ratings" style="swimlane;childLayout=stackLayout;horizontal=1;startSize=50;horizontalStack=0;rounded=1;fontSize=14;fontStyle=0;strokeWidth=2;resizeParent=0;resizeLast=1;shadow=0;dashed=0;align=center;arcSize=4;whiteSpace=wrap;html=1;" parent="1" vertex="1">
                    <mxGeometry x="160" y="-80" width="160" height="240" as="geometry"/>
                </mxCell>
                <mxCell id="e03oDloT3PY8fntRWRLx-31" value="&lt;font style=&quot;font-size: 16px;&quot;&gt;+ rating_id&lt;br&gt;+ user_id&lt;br&gt;+ movie_id&lt;br&gt;+ rating&lt;br&gt;+ comment&lt;br&gt;&lt;/font&gt;" style="align=left;strokeColor=none;fillColor=none;spacingLeft=4;fontSize=12;verticalAlign=top;resizable=0;rotatable=0;part=1;html=1;" parent="e03oDloT3PY8fntRWRLx-30" vertex="1">
                    <mxGeometry y="50" width="160" height="190" as="geometry"/>
                </mxCell>
                <mxCell id="e03oDloT3PY8fntRWRLx-32" value="Reactions" style="swimlane;childLayout=stackLayout;horizontal=1;startSize=50;horizontalStack=0;rounded=1;fontSize=14;fontStyle=0;strokeWidth=2;resizeParent=0;resizeLast=1;shadow=0;dashed=0;align=center;arcSize=4;whiteSpace=wrap;html=1;" parent="1" vertex="1">
                    <mxGeometry x="-320" y="-80" width="160" height="240" as="geometry"/>
                </mxCell>
                <mxCell id="e03oDloT3PY8fntRWRLx-33" value="&lt;font style=&quot;font-size: 16px;&quot;&gt;+ reaction_id&lt;br&gt;+ user_id&lt;br&gt;+ rating_id&lt;br&gt;+ value&lt;br&gt;&lt;/font&gt;" style="align=left;strokeColor=none;fillColor=none;spacingLeft=4;fontSize=12;verticalAlign=top;resizable=0;rotatable=0;part=1;html=1;" parent="e03oDloT3PY8fntRWRLx-32" vertex="1">
                    <mxGeometry y="50" width="160" height="190" as="geometry"/>
                </mxCell>
                <mxCell id="e03oDloT3PY8fntRWRLx-34" value="" style="edgeStyle=entityRelationEdgeStyle;fontSize=12;html=1;endArrow=ERmany;rounded=0;exitX=1;exitY=0;exitDx=0;exitDy=0;entryX=0;entryY=0.75;entryDx=0;entryDy=0;" parent="1" source="e03oDloT3PY8fntRWRLx-7" target="e03oDloT3PY8fntRWRLx-31" edge="1">
                    <mxGeometry width="100" height="100" relative="1" as="geometry">
                        <mxPoint x="140" y="357" as="sourcePoint"/>
                        <mxPoint x="300" y="180" as="targetPoint"/>
                        <Array as="points">
                            <mxPoint x="150" y="394"/>
                        </Array>
                    </mxGeometry>
                </mxCell>
                <mxCell id="e03oDloT3PY8fntRWRLx-35" value="" style="edgeStyle=entityRelationEdgeStyle;fontSize=12;html=1;endArrow=ERmany;rounded=0;exitX=0;exitY=0.25;exitDx=0;exitDy=0;entryX=1;entryY=0.75;entryDx=0;entryDy=0;" parent="1" source="e03oDloT3PY8fntRWRLx-9" target="e03oDloT3PY8fntRWRLx-31" edge="1">
                    <mxGeometry width="100" height="100" relative="1" as="geometry">
                        <mxPoint x="320" y="358" as="sourcePoint"/>
                        <mxPoint x="400" y="133" as="targetPoint"/>
                        <Array as="points">
                            <mxPoint x="390" y="414"/>
                        </Array>
                    </mxGeometry>
                </mxCell>
                <mxCell id="e03oDloT3PY8fntRWRLx-36" value="" style="edgeStyle=entityRelationEdgeStyle;fontSize=12;html=1;endArrow=ERmany;rounded=0;exitX=0;exitY=0;exitDx=0;exitDy=0;entryX=1;entryY=0.75;entryDx=0;entryDy=0;" parent="1" source="e03oDloT3PY8fntRWRLx-7" target="e03oDloT3PY8fntRWRLx-33" edge="1">
                    <mxGeometry width="100" height="100" relative="1" as="geometry">
                        <mxPoint x="-140" y="285" as="sourcePoint"/>
                        <mxPoint x="-60" y="60" as="targetPoint"/>
                        <Array as="points">
                            <mxPoint x="-70" y="341"/>
                        </Array>
                    </mxGeometry>
                </mxCell>
                <mxCell id="e03oDloT3PY8fntRWRLx-37" value="" style="edgeStyle=entityRelationEdgeStyle;fontSize=12;html=1;endArrow=ERmany;rounded=0;exitX=0;exitY=0.5;exitDx=0;exitDy=0;entryX=1;entryY=0.5;entryDx=0;entryDy=0;" parent="1" source="e03oDloT3PY8fntRWRLx-31" target="e03oDloT3PY8fntRWRLx-33" edge="1">
                    <mxGeometry width="100" height="100" relative="1" as="geometry">
                        <mxPoint x="50" y="191" as="sourcePoint"/>
                        <mxPoint x="-29" y="-40" as="targetPoint"/>
                        <Array as="points">
                            <mxPoint x="61" y="188"/>
                        </Array>
                    </mxGeometry>
                </mxCell>
                <mxCell id="e03oDloT3PY8fntRWRLx-38" value="Watch-Lists" style="swimlane;childLayout=stackLayout;horizontal=1;startSize=50;horizontalStack=0;rounded=1;fontSize=14;fontStyle=0;strokeWidth=2;resizeParent=0;resizeLast=1;shadow=0;dashed=0;align=center;arcSize=4;whiteSpace=wrap;html=1;" parent="1" vertex="1">
                    <mxGeometry x="160" y="240" width="160" height="240" as="geometry"/>
                </mxCell>
                <mxCell id="e03oDloT3PY8fntRWRLx-39" value="&lt;font style=&quot;font-size: 16px;&quot;&gt;+ user_id&lt;br&gt;+ movie_id&lt;br&gt;&lt;br&gt;&lt;/font&gt;" style="align=left;strokeColor=none;fillColor=none;spacingLeft=4;fontSize=12;verticalAlign=top;resizable=0;rotatable=0;part=1;html=1;" parent="e03oDloT3PY8fntRWRLx-38" vertex="1">
                    <mxGeometry y="50" width="160" height="190" as="geometry"/>
                </mxCell>
                <mxCell id="e03oDloT3PY8fntRWRLx-40" value="" style="edgeStyle=entityRelationEdgeStyle;fontSize=12;html=1;endArrow=ERmany;rounded=0;exitX=0;exitY=0.5;exitDx=0;exitDy=0;entryX=1;entryY=0.25;entryDx=0;entryDy=0;" parent="1" source="e03oDloT3PY8fntRWRLx-9" target="e03oDloT3PY8fntRWRLx-39" edge="1">
                    <mxGeometry width="100" height="100" relative="1" as="geometry">
                        <mxPoint x="240" y="425" as="sourcePoint"/>
                        <mxPoint x="320" y="200" as="targetPoint"/>
                        <Array as="points">
                            <mxPoint x="310" y="481"/>
                        </Array>
                    </mxGeometry>
                </mxCell>
                <mxCell id="e03oDloT3PY8fntRWRLx-41" value="" style="edgeStyle=entityRelationEdgeStyle;fontSize=12;html=1;endArrow=ERmany;rounded=0;exitX=1;exitY=0.5;exitDx=0;exitDy=0;entryX=0;entryY=0.25;entryDx=0;entryDy=0;" parent="1" source="e03oDloT3PY8fntRWRLx-7" target="e03oDloT3PY8fntRWRLx-39" edge="1">
                    <mxGeometry width="100" height="100" relative="1" as="geometry">
                        <mxPoint x="120" y="378" as="sourcePoint"/>
                        <mxPoint x="200" y="153" as="targetPoint"/>
                        <Array as="points">
                            <mxPoint x="190" y="434"/>
                            <mxPoint x="160" y="320"/>
                        </Array>
                    </mxGeometry>
                </mxCell>
                <mxCell id="e03oDloT3PY8fntRWRLx-42" value="Rooms" style="swimlane;childLayout=stackLayout;horizontal=1;startSize=50;horizontalStack=0;rounded=1;fontSize=14;fontStyle=0;strokeWidth=2;resizeParent=0;resizeLast=1;shadow=0;dashed=0;align=center;arcSize=4;whiteSpace=wrap;html=1;" parent="1" vertex="1">
                    <mxGeometry x="-240" y="880" width="160" height="240" as="geometry"/>
                </mxCell>
                <mxCell id="e03oDloT3PY8fntRWRLx-43" value="&lt;font style=&quot;font-size: 16px;&quot;&gt;+ room_id&lt;br&gt;+ name&lt;br&gt;+ row_count&lt;br&gt;+ colum_count&amp;nbsp;&lt;br&gt;&lt;br&gt;&lt;/font&gt;" style="align=left;strokeColor=none;fillColor=none;spacingLeft=4;fontSize=12;verticalAlign=top;resizable=0;rotatable=0;part=1;html=1;" parent="e03oDloT3PY8fntRWRLx-42" vertex="1">
                    <mxGeometry y="50" width="160" height="190" as="geometry"/>
                </mxCell>
                <mxCell id="e03oDloT3PY8fntRWRLx-44" value="Seets" style="swimlane;childLayout=stackLayout;horizontal=1;startSize=50;horizontalStack=0;rounded=1;fontSize=14;fontStyle=0;strokeWidth=2;resizeParent=0;resizeLast=1;shadow=0;dashed=0;align=center;arcSize=4;whiteSpace=wrap;html=1;" parent="1" vertex="1">
                    <mxGeometry x="-640" y="560" width="160" height="240" as="geometry"/>
                </mxCell>
                <mxCell id="e03oDloT3PY8fntRWRLx-45" value="&lt;font style=&quot;font-size: 16px;&quot;&gt;+ seet_id&lt;br&gt;+ room_id&lt;br&gt;+ is_preserved&lt;br&gt;+ column_index&lt;br&gt;+ row_index&lt;br&gt;&lt;br&gt;&lt;/font&gt;" style="align=left;strokeColor=none;fillColor=none;spacingLeft=4;fontSize=12;verticalAlign=top;resizable=0;rotatable=0;part=1;html=1;" parent="e03oDloT3PY8fntRWRLx-44" vertex="1">
                    <mxGeometry y="50" width="160" height="190" as="geometry"/>
                </mxCell>
                <mxCell id="e03oDloT3PY8fntRWRLx-46" value="" style="edgeStyle=entityRelationEdgeStyle;fontSize=12;html=1;endArrow=ERmany;rounded=0;entryX=1;entryY=0.5;entryDx=0;entryDy=0;exitX=0;exitY=0.25;exitDx=0;exitDy=0;" parent="1" source="e03oDloT3PY8fntRWRLx-43" target="e03oDloT3PY8fntRWRLx-45" edge="1">
                    <mxGeometry width="100" height="100" relative="1" as="geometry">
                        <mxPoint x="-440" y="480" as="sourcePoint"/>
                        <mxPoint x="180" y="678" as="targetPoint"/>
                        <Array as="points">
                            <mxPoint x="210" y="454"/>
                            <mxPoint x="180" y="340"/>
                        </Array>
                    </mxGeometry>
                </mxCell>
                <mxCell id="e03oDloT3PY8fntRWRLx-47" value="&lt;br&gt;Movies-Sessions" style="swimlane;childLayout=stackLayout;horizontal=1;startSize=50;horizontalStack=0;rounded=1;fontSize=14;fontStyle=0;strokeWidth=2;resizeParent=0;resizeLast=1;shadow=0;dashed=0;align=center;arcSize=4;whiteSpace=wrap;html=1;" parent="1" vertex="1">
                    <mxGeometry x="160" y="800" width="160" height="240" as="geometry"/>
                </mxCell>
                <mxCell id="e03oDloT3PY8fntRWRLx-48" value="&lt;font style=&quot;font-size: 16px;&quot;&gt;+ movie_session_id&lt;br&gt;+ room_id&lt;br&gt;+ movie_id&lt;br&gt;+ name&amp;nbsp;&lt;br&gt;+ duration&amp;nbsp;&lt;br&gt;+ date&lt;br&gt;+ details&lt;br&gt;+ price&lt;br&gt;&lt;/font&gt;" style="align=left;strokeColor=none;fillColor=none;spacingLeft=4;fontSize=12;verticalAlign=top;resizable=0;rotatable=0;part=1;html=1;" parent="e03oDloT3PY8fntRWRLx-47" vertex="1">
                    <mxGeometry y="50" width="160" height="190" as="geometry"/>
                </mxCell>
                <mxCell id="e03oDloT3PY8fntRWRLx-49" value="" style="edgeStyle=entityRelationEdgeStyle;fontSize=12;html=1;endArrow=ERmany;rounded=0;exitX=1;exitY=0.25;exitDx=0;exitDy=0;entryX=0;entryY=0.5;entryDx=0;entryDy=0;" parent="1" source="e03oDloT3PY8fntRWRLx-43" target="e03oDloT3PY8fntRWRLx-48" edge="1">
                    <mxGeometry width="100" height="100" relative="1" as="geometry">
                        <mxPoint x="-40" y="700" as="sourcePoint"/>
                        <mxPoint x="40" y="973" as="targetPoint"/>
                        <Array as="points">
                            <mxPoint x="70" y="749"/>
                            <mxPoint x="40" y="635"/>
                        </Array>
                    </mxGeometry>
                </mxCell>
                <mxCell id="e03oDloT3PY8fntRWRLx-50" value="" style="edgeStyle=entityRelationEdgeStyle;fontSize=12;html=1;endArrow=ERmany;rounded=0;exitX=0;exitY=1;exitDx=0;exitDy=0;entryX=1;entryY=0.25;entryDx=0;entryDy=0;" parent="1" source="e03oDloT3PY8fntRWRLx-9" target="e03oDloT3PY8fntRWRLx-48" edge="1">
                    <mxGeometry width="100" height="100" relative="1" as="geometry">
                        <mxPoint x="410" y="432.5" as="sourcePoint"/>
                        <mxPoint x="190" y="1078" as="targetPoint"/>
                        <Array as="points">
                            <mxPoint x="100" y="769"/>
                            <mxPoint x="90" y="900"/>
                            <mxPoint x="70" y="655"/>
                        </Array>
                    </mxGeometry>
                </mxCell>
                <mxCell id="e03oDloT3PY8fntRWRLx-51" value="Tickets" style="swimlane;childLayout=stackLayout;horizontal=1;startSize=50;horizontalStack=0;rounded=1;fontSize=14;fontStyle=0;strokeWidth=2;resizeParent=0;resizeLast=1;shadow=0;dashed=0;align=center;arcSize=4;whiteSpace=wrap;html=1;" parent="1" vertex="1">
                    <mxGeometry x="-320" y="560" width="160" height="240" as="geometry"/>
                </mxCell>
                <mxCell id="e03oDloT3PY8fntRWRLx-52" value="&lt;font style=&quot;font-size: 16px;&quot;&gt;+ ticket_id&lt;br&gt;+ seet_id&lt;br&gt;+ movie_session_id&lt;br&gt;+ user_id&lt;br&gt;+ created_at&lt;br&gt;+ price&lt;br&gt;&lt;/font&gt;" style="align=left;strokeColor=none;fillColor=none;spacingLeft=4;fontSize=12;verticalAlign=top;resizable=0;rotatable=0;part=1;html=1;" parent="e03oDloT3PY8fntRWRLx-51" vertex="1">
                    <mxGeometry y="50" width="160" height="190" as="geometry"/>
                </mxCell>
                <mxCell id="e03oDloT3PY8fntRWRLx-57" value="" style="edgeStyle=entityRelationEdgeStyle;fontSize=12;html=1;endArrow=ERmany;rounded=0;entryX=0;entryY=0.25;entryDx=0;entryDy=0;exitX=1;exitY=0.25;exitDx=0;exitDy=0;" parent="1" source="e03oDloT3PY8fntRWRLx-45" target="e03oDloT3PY8fntRWRLx-52" edge="1">
                    <mxGeometry width="100" height="100" relative="1" as="geometry">
                        <mxPoint x="-235" y="1100" as="sourcePoint"/>
                        <mxPoint x="-395" y="827" as="targetPoint"/>
                        <Array as="points">
                            <mxPoint x="135" y="576"/>
                            <mxPoint x="105" y="462"/>
                        </Array>
                    </mxGeometry>
                </mxCell>
                <mxCell id="e03oDloT3PY8fntRWRLx-58" value="" style="edgeStyle=entityRelationEdgeStyle;fontSize=12;html=1;endArrow=ERmany;rounded=0;entryX=1;entryY=0;entryDx=0;entryDy=0;exitX=0;exitY=0.75;exitDx=0;exitDy=0;" parent="1" source="e03oDloT3PY8fntRWRLx-7" target="e03oDloT3PY8fntRWRLx-52" edge="1">
                    <mxGeometry width="100" height="100" relative="1" as="geometry">
                        <mxPoint x="-300" y="678" as="sourcePoint"/>
                        <mxPoint x="-140" y="678" as="targetPoint"/>
                        <Array as="points">
                            <mxPoint x="155" y="596"/>
                            <mxPoint x="-260" y="520"/>
                            <mxPoint x="125" y="482"/>
                        </Array>
                    </mxGeometry>
                </mxCell>
                <mxCell id="e03oDloT3PY8fntRWRLx-59" value="" style="edgeStyle=entityRelationEdgeStyle;fontSize=12;html=1;endArrow=ERmany;rounded=0;exitX=0;exitY=0.25;exitDx=0;exitDy=0;entryX=1;entryY=0.75;entryDx=0;entryDy=0;" parent="1" source="e03oDloT3PY8fntRWRLx-48" target="e03oDloT3PY8fntRWRLx-52" edge="1">
                    <mxGeometry width="100" height="100" relative="1" as="geometry">
                        <mxPoint x="-100" y="800" as="sourcePoint"/>
                        <mxPoint x="140" y="767" as="targetPoint"/>
                        <Array as="points">
                            <mxPoint x="50" y="571"/>
                            <mxPoint x="20" y="457"/>
                        </Array>
                    </mxGeometry>
                </mxCell>
                <mxCell id="e03oDloT3PY8fntRWRLx-60" value="Coins" style="swimlane;childLayout=stackLayout;horizontal=1;startSize=50;horizontalStack=0;rounded=1;fontSize=14;fontStyle=0;strokeWidth=2;resizeParent=0;resizeLast=1;shadow=0;dashed=0;align=center;arcSize=4;whiteSpace=wrap;html=1;" parent="1" vertex="1">
                    <mxGeometry x="-800" y="240" width="160" height="240" as="geometry"/>
                </mxCell>
                <mxCell id="e03oDloT3PY8fntRWRLx-61" value="&lt;font style=&quot;font-size: 16px;&quot;&gt;+ coin_id&amp;nbsp;&lt;br&gt;+ price&lt;br&gt;+ amount&lt;br&gt;+ deleted_at&lt;br&gt;&lt;/font&gt;" style="align=left;strokeColor=none;fillColor=none;spacingLeft=4;fontSize=12;verticalAlign=top;resizable=0;rotatable=0;part=1;html=1;" parent="e03oDloT3PY8fntRWRLx-60" vertex="1">
                    <mxGeometry y="50" width="160" height="190" as="geometry"/>
                </mxCell>
                <mxCell id="e03oDloT3PY8fntRWRLx-62" value="Coins-Purchases" style="swimlane;childLayout=stackLayout;horizontal=1;startSize=50;horizontalStack=0;rounded=1;fontSize=14;fontStyle=0;strokeWidth=2;resizeParent=0;resizeLast=1;shadow=0;dashed=0;align=center;arcSize=4;whiteSpace=wrap;html=1;" parent="1" vertex="1">
                    <mxGeometry x="-480" y="320" width="160" height="240" as="geometry"/>
                </mxCell>
                <mxCell id="e03oDloT3PY8fntRWRLx-63" value="&lt;font style=&quot;font-size: 16px;&quot;&gt;+ coin-purchase_id&amp;nbsp;&lt;br&gt;+ coin_id&lt;br&gt;+ user_id&lt;br&gt;+ create_at&lt;br&gt;&lt;/font&gt;" style="align=left;strokeColor=none;fillColor=none;spacingLeft=4;fontSize=12;verticalAlign=top;resizable=0;rotatable=0;part=1;html=1;" parent="e03oDloT3PY8fntRWRLx-62" vertex="1">
                    <mxGeometry y="50" width="160" height="190" as="geometry"/>
                </mxCell>
                <mxCell id="e03oDloT3PY8fntRWRLx-64" value="" style="edgeStyle=entityRelationEdgeStyle;fontSize=12;html=1;endArrow=ERmany;rounded=0;exitX=0;exitY=0.5;exitDx=0;exitDy=0;entryX=1;entryY=0.5;entryDx=0;entryDy=0;" parent="1" source="e03oDloT3PY8fntRWRLx-7" target="e03oDloT3PY8fntRWRLx-63" edge="1">
                    <mxGeometry width="100" height="100" relative="1" as="geometry">
                        <mxPoint x="-131" y="400" as="sourcePoint"/>
                        <mxPoint x="-210" y="169" as="targetPoint"/>
                        <Array as="points">
                            <mxPoint x="-120" y="397"/>
                        </Array>
                    </mxGeometry>
                </mxCell>
                <mxCell id="e03oDloT3PY8fntRWRLx-67" value="" style="edgeStyle=entityRelationEdgeStyle;fontSize=12;html=1;endArrow=ERmany;rounded=0;exitX=1;exitY=0.5;exitDx=0;exitDy=0;entryX=0;entryY=0.5;entryDx=0;entryDy=0;" parent="1" source="e03oDloT3PY8fntRWRLx-61" target="e03oDloT3PY8fntRWRLx-63" edge="1">
                    <mxGeometry width="100" height="100" relative="1" as="geometry">
                        <mxPoint x="-430" y="311" as="sourcePoint"/>
                        <mxPoint x="-509" y="80" as="targetPoint"/>
                        <Array as="points">
                            <mxPoint x="-419" y="308"/>
                        </Array>
                    </mxGeometry>
                </mxCell>
                <mxCell id="e03oDloT3PY8fntRWRLx-68" value="Items-Purchases" style="swimlane;childLayout=stackLayout;horizontal=1;startSize=50;horizontalStack=0;rounded=1;fontSize=14;fontStyle=0;strokeWidth=2;resizeParent=0;resizeLast=1;shadow=0;dashed=0;align=center;arcSize=4;whiteSpace=wrap;html=1;" parent="1" vertex="1">
                    <mxGeometry x="-560" y="80" width="160" height="240" as="geometry"/>
                </mxCell>
                <mxCell id="e03oDloT3PY8fntRWRLx-69" value="&lt;font style=&quot;font-size: 16px;&quot;&gt;+ item-purchase_id&amp;nbsp;&lt;br&gt;+ item_id&lt;br&gt;+ user_id&lt;br&gt;+ amount&lt;br&gt;+ price&lt;br&gt;+ create_at&lt;br&gt;&lt;/font&gt;" style="align=left;strokeColor=none;fillColor=none;spacingLeft=4;fontSize=12;verticalAlign=top;resizable=0;rotatable=0;part=1;html=1;" parent="e03oDloT3PY8fntRWRLx-68" vertex="1">
                    <mxGeometry y="50" width="160" height="190" as="geometry"/>
                </mxCell>
                <mxCell id="e03oDloT3PY8fntRWRLx-70" value="Items" style="swimlane;childLayout=stackLayout;horizontal=1;startSize=50;horizontalStack=0;rounded=1;fontSize=14;fontStyle=0;strokeWidth=2;resizeParent=0;resizeLast=1;shadow=0;dashed=0;align=center;arcSize=4;whiteSpace=wrap;html=1;" parent="1" vertex="1">
                    <mxGeometry x="-800" y="-80" width="160" height="240" as="geometry"/>
                </mxCell>
                <mxCell id="e03oDloT3PY8fntRWRLx-71" value="&lt;font style=&quot;font-size: 16px;&quot;&gt;+ item_id&amp;nbsp;&lt;br&gt;+ name&lt;br&gt;+ description&lt;br&gt;+ price&lt;br&gt;+ deleted_at&lt;br&gt;&lt;/font&gt;" style="align=left;strokeColor=none;fillColor=none;spacingLeft=4;fontSize=12;verticalAlign=top;resizable=0;rotatable=0;part=1;html=1;" parent="e03oDloT3PY8fntRWRLx-70" vertex="1">
                    <mxGeometry y="50" width="160" height="190" as="geometry"/>
                </mxCell>
                <mxCell id="e03oDloT3PY8fntRWRLx-72" value="" style="edgeStyle=entityRelationEdgeStyle;fontSize=12;html=1;endArrow=ERmany;rounded=0;exitX=1;exitY=0.75;exitDx=0;exitDy=0;entryX=0;entryY=0.5;entryDx=0;entryDy=0;" parent="1" source="e03oDloT3PY8fntRWRLx-71" target="e03oDloT3PY8fntRWRLx-69" edge="1">
                    <mxGeometry width="100" height="100" relative="1" as="geometry">
                        <mxPoint x="-620" y="405" as="sourcePoint"/>
                        <mxPoint x="-460" y="485" as="targetPoint"/>
                        <Array as="points">
                            <mxPoint x="-399" y="328"/>
                        </Array>
                    </mxGeometry>
                </mxCell>
                <mxCell id="e03oDloT3PY8fntRWRLx-73" value="" style="edgeStyle=entityRelationEdgeStyle;fontSize=12;html=1;endArrow=ERmany;rounded=0;exitX=0;exitY=0.25;exitDx=0;exitDy=0;entryX=1;entryY=0.25;entryDx=0;entryDy=0;" parent="1" source="e03oDloT3PY8fntRWRLx-7" target="e03oDloT3PY8fntRWRLx-69" edge="1">
                    <mxGeometry width="100" height="100" relative="1" as="geometry">
                        <mxPoint x="-620" y="133" as="sourcePoint"/>
                        <mxPoint x="-540" y="245" as="targetPoint"/>
                        <Array as="points">
                            <mxPoint x="-379" y="348"/>
                        </Array>
                    </mxGeometry>
                </mxCell>
                <mxCell id="e03oDloT3PY8fntRWRLx-74" value="Movies-Purchases" style="swimlane;childLayout=stackLayout;horizontal=1;startSize=50;horizontalStack=0;rounded=1;fontSize=14;fontStyle=0;strokeWidth=2;resizeParent=0;resizeLast=1;shadow=0;dashed=0;align=center;arcSize=4;whiteSpace=wrap;html=1;" parent="1" vertex="1">
                    <mxGeometry x="160" y="480" width="160" height="240" as="geometry"/>
                </mxCell>
                <mxCell id="e03oDloT3PY8fntRWRLx-75" value="&lt;font style=&quot;font-size: 16px;&quot;&gt;+ movies-purchase_id&amp;nbsp;&lt;br&gt;+ movie_id&lt;br&gt;+ user_id&lt;br&gt;+ create_at&lt;br&gt;&lt;/font&gt;" style="align=left;strokeColor=none;fillColor=none;spacingLeft=4;fontSize=12;verticalAlign=top;resizable=0;rotatable=0;part=1;html=1;" parent="e03oDloT3PY8fntRWRLx-74" vertex="1">
                    <mxGeometry y="50" width="160" height="190" as="geometry"/>
                </mxCell>
                <mxCell id="e03oDloT3PY8fntRWRLx-76" value="" style="edgeStyle=entityRelationEdgeStyle;fontSize=12;html=1;endArrow=ERmany;rounded=0;exitX=1;exitY=0.75;exitDx=0;exitDy=0;entryX=0;entryY=0.25;entryDx=0;entryDy=0;" parent="1" source="e03oDloT3PY8fntRWRLx-7" target="e03oDloT3PY8fntRWRLx-75" edge="1">
                    <mxGeometry width="100" height="100" relative="1" as="geometry">
                        <mxPoint x="100" y="445" as="sourcePoint"/>
                        <mxPoint x="180" y="358" as="targetPoint"/>
                        <Array as="points">
                            <mxPoint x="210" y="454"/>
                            <mxPoint x="180" y="340"/>
                        </Array>
                    </mxGeometry>
                </mxCell>
                <mxCell id="e03oDloT3PY8fntRWRLx-77" value="" style="edgeStyle=entityRelationEdgeStyle;fontSize=12;html=1;endArrow=ERmany;rounded=0;exitX=0;exitY=0.75;exitDx=0;exitDy=0;entryX=1;entryY=0;entryDx=0;entryDy=0;" parent="1" source="e03oDloT3PY8fntRWRLx-9" target="e03oDloT3PY8fntRWRLx-75" edge="1">
                    <mxGeometry width="100" height="100" relative="1" as="geometry">
                        <mxPoint x="420" y="540" as="sourcePoint"/>
                        <mxPoint x="500" y="705" as="targetPoint"/>
                        <Array as="points">
                            <mxPoint x="550" y="501"/>
                            <mxPoint x="520" y="387"/>
                        </Array>
                    </mxGeometry>
                </mxCell>
            </root>
        </mxGraphModel>
    </diagram>
</mxfile>